<svg width="29" height="16" viewBox="0 0 29 16" fill="none" xmlns="http://www.w3.org/2000/svg">
<path d="M17.0306 5.52943C16.5832 4.93602 16.0212 4.44253 15.3793 4.07945C14.7375 3.71637 14.0295 3.49142 13.2991 3.41851C12.5687 3.34559 11.8314 3.42626 11.1327 3.65553C10.4341 3.88479 9.78893 4.25778 9.23719 4.75145L8.76053 4.38191C5.48585 2.02851 0.900357 4.02695 0.471361 8.05788C0.340858 9.99984 0.307448 11.9473 0.371262 13.8928C0.360734 14.1424 0.40062 14.3916 0.488442 14.6249C0.576265 14.8581 0.71015 15.0705 0.881788 15.2488C1.05343 15.427 1.25915 15.5674 1.4862 15.6612C1.71325 15.755 1.95677 15.8002 2.20165 15.794C2.44131 15.7929 2.67828 15.7424 2.89833 15.6456C3.11838 15.5487 3.31697 15.4075 3.48215 15.2304C3.64733 15.0532 3.77571 14.8439 3.85955 14.6148C3.9434 14.3858 3.98099 14.1418 3.97007 13.8976C3.97007 12.4973 3.97007 11.0969 3.97007 9.69165C3.96621 9.27506 3.9949 8.85882 4.05587 8.44687C4.13275 8.02525 4.36328 7.64896 4.70108 7.39367C5.03889 7.13838 5.45893 7.02303 5.87672 7.07082C6.28512 7.10223 6.66826 7.28451 6.95433 7.58349C7.2404 7.88246 7.40975 8.27761 7.43064 8.69486C7.45447 9.21027 7.43064 9.72568 7.43064 10.2411C7.43064 11.4956 7.43064 12.7501 7.43064 14.0046C7.42574 14.3685 7.53183 14.7249 7.73422 15.0245C7.93661 15.3242 8.22529 15.5523 8.56033 15.6773C9.77582 16.1927 11.0151 15.2883 11.039 13.8636C11.039 12.2055 11.039 10.5474 11.0866 8.88935C11.1027 8.48854 11.2228 8.09925 11.4346 7.76128C11.6363 7.46326 11.9286 7.24129 12.2663 7.12968C12.6041 7.01806 12.9684 7.02301 13.3031 7.14375C13.6807 7.25169 14.0107 7.48791 14.2387 7.81332C14.4667 8.13872 14.5789 8.53379 14.5567 8.93311C14.5567 10.6106 14.5567 12.2882 14.5567 13.9657C14.5567 14.2064 14.6032 14.4448 14.6935 14.6672C14.7838 14.8896 14.9162 15.0917 15.0831 15.2619C15.2499 15.4321 15.4481 15.5672 15.6661 15.6593C15.8841 15.7514 16.1178 15.7988 16.3538 15.7988C16.5898 15.7988 16.8234 15.7514 17.0415 15.6593C17.2595 15.5672 17.4576 15.4321 17.6244 15.2619C17.7913 15.0917 17.9237 14.8896 18.014 14.6672C18.1043 14.4448 18.1508 14.2064 18.1508 13.9657C18.1508 12.2493 18.1508 10.562 18.1508 8.82128C18.154 7.62619 17.7591 6.46544 17.0306 5.52943Z" fill="white"/>
<path d="M26.0349 6.50162L25.4676 6.26337C26.0301 5.81603 26.564 5.4319 27.0406 4.99428C27.4641 4.65415 27.8297 4.24508 28.1227 3.78354C28.9806 2.14978 27.7699 0.24858 25.849 0.204818C24.0758 0.180506 22.3074 0.180506 20.5342 0.180506C20.317 0.165195 20.0991 0.196902 19.8947 0.273547C19.6904 0.350191 19.5042 0.470042 19.3485 0.625235C19.1928 0.780428 19.071 0.967457 18.9911 1.17405C18.9112 1.38065 18.875 1.60214 18.8849 1.824C18.8637 2.04997 18.8909 2.27795 18.9646 2.49213C19.0384 2.70632 19.1569 2.90158 19.312 3.0644C19.467 3.22721 19.655 3.35368 19.8627 3.43504C20.0705 3.5164 20.2931 3.5507 20.5151 3.53556C21.3826 3.53556 22.2502 3.53556 23.1177 3.53556C23.2655 3.58419 23.418 3.58419 23.704 3.58419C22.5266 4.55666 21.4398 5.48052 20.3673 6.39465C19.6762 6.97814 19.4665 7.61511 19.7096 8.33961C19.8387 8.69722 20.0793 9.00173 20.3944 9.20639C20.7096 9.41105 21.0819 9.50455 21.4541 9.47255C22.3741 9.47255 23.2988 9.47255 24.2188 9.47255C24.4251 9.43364 24.6373 9.44151 24.8403 9.49562C25.0433 9.54973 25.2321 9.64874 25.3934 9.78563C25.5547 9.92253 25.6845 10.0939 25.7735 10.2877C25.8626 10.4815 25.9088 10.6929 25.9088 10.907C25.9088 11.121 25.8626 11.3324 25.7735 11.5262C25.6845 11.72 25.5547 11.8914 25.3934 12.0283C25.2321 12.1652 25.0433 12.2642 24.8403 12.3183C24.6373 12.3724 24.4251 12.3803 24.2188 12.3414C23.0271 12.3414 21.8355 12.3414 20.6438 12.3414C20.2261 12.3644 19.8329 12.5499 19.5452 12.8597C19.2575 13.1695 19.0971 13.58 19.0971 14.0067C19.0971 14.4335 19.2575 14.844 19.5452 15.1538C19.8329 15.4636 20.2261 15.6491 20.6438 15.6721C21.8879 15.6721 23.1368 15.6721 24.3808 15.6721C25.4737 15.6438 26.5238 15.2332 27.3552 14.5091C28.1866 13.7849 28.7487 12.7913 28.9473 11.6947C29.1056 10.621 28.9042 9.52429 28.3757 8.58189C27.8472 7.63949 27.0224 6.90654 26.0349 6.50162Z" fill="white"/>
</svg>
